<svg id="Layer_1" data-name="Layer 1" xmlns="http://www.w3.org/2000/svg" xmlns:xlink="http://www.w3.org/1999/xlink" viewBox="0 0 700 700"><defs><style>.cls-1{fill:#ebecf0;}.cls-2{clip-path:url(#clip-path);}.cls-3{fill:#f4f5f7;}.cls-4{fill:#fff;}.cls-5{fill:#8777d9;}.cls-6{fill:#dfe1e5;}.cls-7{opacity:0.2;fill:url(#radial-gradient);}.cls-8{fill:url(#linear-gradient);}.cls-9{fill:url(#linear-gradient-2);}.cls-10{fill:url(#linear-gradient-3);}.cls-11{fill:#5243aa;}.cls-12{fill:url(#linear-gradient-4);}</style><clipPath id="clip-path"><circle id="_Ellipse_" data-name="&lt;Ellipse&gt;" class="cls-1" cx="339.81" cy="350" r="300"/></clipPath><radialGradient id="radial-gradient" cx="339.81" cy="350" r="300" gradientUnits="userSpaceOnUse"><stop offset="0.78" stop-color="#a5adba" stop-opacity="0"/><stop offset="0.81" stop-color="#a5adba" stop-opacity="0.03"/><stop offset="0.84" stop-color="#a5adba" stop-opacity="0.1"/><stop offset="0.88" stop-color="#a5adba" stop-opacity="0.23"/><stop offset="0.91" stop-color="#a5adba" stop-opacity="0.41"/><stop offset="0.95" stop-color="#a5adba" stop-opacity="0.63"/><stop offset="0.99" stop-color="#a5adba" stop-opacity="0.91"/><stop offset="1" stop-color="#a5adba"/></radialGradient><linearGradient id="linear-gradient" x1="85.19" y1="511.55" x2="435.19" y2="511.55" gradientUnits="userSpaceOnUse"><stop offset="0" stop-color="#6554c0"/><stop offset="1" stop-color="#8777d9"/></linearGradient><linearGradient id="linear-gradient-2" x1="10.19" y1="190.01" x2="480.69" y2="190.01" xlink:href="#linear-gradient"/><linearGradient id="linear-gradient-3" x1="269.31" y1="350.78" x2="689.81" y2="350.78" xlink:href="#linear-gradient"/><linearGradient id="linear-gradient-4" x1="300" y1="27.08" x2="300" y2="388.07" gradientUnits="userSpaceOnUse"><stop offset="0" stop-color="#ffab00"/><stop offset="1" stop-color="#ff991f"/></linearGradient></defs><title>roadmaps</title><circle id="_Ellipse_2" data-name="&lt;Ellipse&gt;" class="cls-1" cx="339.81" cy="350" r="300"/><g class="cls-2"><rect class="cls-3" x="9.67" y="590.32" width="660.29" height="160"/><rect class="cls-4" x="9.67" y="110.32" width="660.29" height="160"/><rect class="cls-1" x="9.67" y="270.32" width="660.29" height="160"/><rect class="cls-4" x="9.67" y="430.32" width="660.29" height="160"/><rect class="cls-1" x="9.67" y="-49.68" width="660.29" height="160"/><rect class="cls-5" x="331.74" y="611.52" width="600" height="120" rx="15.01" ry="15.01"/><rect class="cls-6" x="137.55" y="104.55" width="413.22" height="6"/><circle class="cls-7" cx="339.81" cy="350" r="300"/></g><rect class="cls-8" x="85.19" y="451.55" width="350" height="120" rx="15" ry="15"/><rect class="cls-9" x="10.19" y="130.01" width="470.5" height="120" rx="15" ry="15"/><rect class="cls-10" x="269.31" y="290.78" width="420.5" height="120" rx="15" ry="15"/><rect class="cls-11" x="636.81" y="310.78" width="30" height="80" rx="15" ry="15"/><path class="cls-12" d="M320,25H280l15,30.05V675a5,5,0,0,0,10,0V55.05Z"/></svg>